<svg id="Layer_1" data-name="Layer 1" xmlns="http://www.w3.org/2000/svg" viewBox="0 0 1149.03 1062.6"><defs><style>.cls-1{opacity:0.1;isolation:isolate;}.cls-2{fill:#13e817;}.cls-3{fill:#00c805;}.cls-4{fill:#40ff61;}.cls-5{fill:#8bf08e;}.cls-6{fill:#25cff2;}.cls-7{fill:#0182e5;}.cls-8{fill:#4de0f4;}.cls-9{fill:#fff;}.cls-10,.cls-11,.cls-12{fill:none;stroke:#000;}.cls-10,.cls-12{stroke-miterlimit:10;}.cls-11{stroke-miterlimit:10;}.cls-12{stroke-dasharray:12.44 12.44;}</style></defs><g id="Layer_4" data-name="Layer 4"><polygon class="cls-1" points="346.83 1060.12 827.83 921.22 481.63 826.42 0.63 965.32 346.83 1060.12"/><polygon class="cls-2" points="0.63 118.82 35.53 109.12 373.53 200.12 373.53 1052.12 338.63 1061.82 0.63 971.22 0.63 118.82"/><polygon class="cls-3" points="338.83 210.12 373.53 200.12 373.53 1052.12 338.63 1061.82 338.83 210.12"/><polygon class="cls-4" points="0.63 118.82 35.53 109.12 373.53 200.12 338.83 210.12 0.63 118.82"/><polygon class="cls-5" points="13.63 144.52 87.13 163.32 87.13 199.82 251.33 244.22 252.23 207.82 325.13 226.62 325.03 1039.12 13.63 956.02 13.63 144.52"/><path class="cls-6" d="M451.4,17.2l11.4-3.7,261.4,70V712.8l-8.9,2.3L624,690.6s.1-29.3-24.3-43.7-36-8.1-36-8.1-8.8,8.4-10.1,14.9a124.85,124.85,0,0,0-1.8,12.5l-9.2,2.6-91.3-24.5V17.2Z" transform="translate(-4.97 -12.98)"/><polygon class="cls-7" points="709.93 74.82 719.23 70.62 719.23 699.92 710.43 702.22 709.93 74.82"/><polygon class="cls-8" points="446.43 4.22 709.93 74.82 719.23 70.62 457.83 0.52 446.43 4.22"/><polygon class="cls-9" points="355.13 194.12 373.53 200.12 374.53 243.42 373.53 322.72 679.33 325.32 680.03 100.62 486.53 49.12 355.13 194.12"/><path class="cls-1" d="M889,727.7,595.2,809.2l98.9,27.1c.8-1.2,2.4-2.1,4.8-2.9,11.2-3.3,36-.1,55.4,7.3,16.2,6.1,23.5,13.2,18.9,17.3l87,23.8L1154,800.3Z" transform="translate(-4.97 -12.98)"/><polygon points="506.73 241.92 515.13 244.22 515.13 253.62 506.73 251.42 506.73 241.92"/><polygon points="515.13 244.22 523.43 246.42 523.43 255.92 515.13 253.62 515.13 244.22"/><polygon points="523.43 246.42 531.83 248.62 531.83 258.12 523.43 255.92 523.43 246.42"/><polygon points="531.83 248.62 540.23 250.92 540.23 260.42 531.83 258.12 531.83 248.62"/><polygon points="540.23 250.92 548.63 253.12 548.63 262.62 540.23 260.42 540.23 250.92"/><polygon points="548.63 253.12 557.03 255.42 557.03 264.92 548.63 262.62 548.63 253.12"/><polygon points="565.33 257.62 573.73 259.92 573.73 269.42 565.33 267.12 565.33 257.62"/><polygon points="573.73 259.92 582.13 262.12 582.13 271.62 573.73 269.42 573.73 259.92"/><polygon points="582.13 262.12 590.53 264.42 590.53 273.92 582.13 271.62 582.13 262.12"/><polygon points="598.93 266.62 607.23 268.82 607.23 278.32 598.93 276.12 598.93 266.62"/><polygon points="607.23 268.82 615.63 271.12 615.63 280.62 607.23 278.32 607.23 268.82"/><polygon points="624.03 273.32 632.43 275.62 632.43 285.12 624.03 282.82 624.03 273.32"/><polygon points="632.43 275.62 640.73 277.82 640.73 287.32 632.43 285.12 632.43 275.62"/><polygon points="640.73 277.82 649.13 280.12 649.13 289.62 640.73 287.32 640.73 277.82"/><polygon points="506.73 232.42 515.13 234.72 515.13 244.22 506.73 241.92 506.73 232.42"/><polygon points="548.63 243.62 557.03 245.92 557.03 255.42 548.63 253.12 548.63 243.62"/><polygon points="565.33 248.12 573.73 250.42 573.73 259.92 565.33 257.62 565.33 248.12"/><polygon points="582.13 252.62 590.53 254.92 590.53 264.42 582.13 262.12 582.13 252.62"/><polygon points="590.53 254.92 598.93 257.12 598.93 266.62 590.53 264.42 590.53 254.92"/><polygon points="607.23 259.42 615.63 261.62 615.63 271.12 607.23 268.82 607.23 259.42"/><polygon points="615.63 261.62 624.03 263.82 624.03 273.32 615.63 271.12 615.63 261.62"/><polygon points="632.43 266.12 640.73 268.32 640.73 277.82 632.43 275.62 632.43 266.12"/><polygon points="640.73 268.32 649.13 270.62 649.13 280.12 640.73 277.82 640.73 268.32"/><polygon points="506.73 222.92 515.13 225.22 515.13 234.72 506.73 232.42 506.73 222.92"/><polygon points="523.43 227.42 531.83 229.72 531.83 239.12 523.43 236.92 523.43 227.42"/><polygon points="531.83 229.72 540.23 231.92 540.23 241.42 531.83 239.12 531.83 229.72"/><polygon points="548.63 234.12 557.03 236.42 557.03 245.92 548.63 243.62 548.63 234.12"/><polygon points="590.53 245.42 598.93 247.62 598.93 257.12 590.53 254.92 590.53 245.42"/><polygon points="598.93 247.62 607.23 249.92 607.23 259.42 598.93 257.12 598.93 247.62"/><polygon points="632.43 256.62 640.73 258.82 640.73 268.32 632.43 266.12 632.43 256.62"/><polygon points="506.73 213.42 515.13 215.72 515.13 225.22 506.73 222.92 506.73 213.42"/><polygon points="523.43 217.92 531.83 220.22 531.83 229.72 523.43 227.42 523.43 217.92"/><polygon points="531.83 220.22 540.23 222.42 540.23 231.92 531.83 229.72 531.83 220.22"/><polygon points="548.63 224.62 557.03 226.92 557.03 236.42 548.63 234.12 548.63 224.62"/><polygon points="565.33 229.12 573.73 231.42 573.73 240.92 565.33 238.62 565.33 229.12"/><polygon points="582.13 233.62 590.53 235.92 590.53 245.42 582.13 243.12 582.13 233.62"/><polygon points="590.53 235.92 598.93 238.12 598.93 247.62 590.53 245.42 590.53 235.92"/><polygon points="598.93 238.12 607.23 240.42 607.23 249.92 598.93 247.62 598.93 238.12"/><polygon points="607.23 240.42 615.63 242.62 615.63 252.12 607.23 249.92 607.23 240.42"/><polygon points="615.63 242.62 624.03 244.92 624.03 254.32 615.63 252.12 615.63 242.62"/><polygon points="632.43 247.12 640.73 249.32 640.73 258.82 632.43 256.62 632.43 247.12"/><polygon points="506.73 203.92 515.13 206.22 515.13 215.72 506.73 213.42 506.73 203.92"/><polygon points="548.63 215.22 557.03 217.42 557.03 226.92 548.63 224.62 548.63 215.22"/><polygon points="565.33 219.62 573.73 221.92 573.73 231.42 565.33 229.12 565.33 219.62"/><polygon points="582.13 224.12 590.53 226.42 590.53 235.92 582.13 233.62 582.13 224.12"/><polygon points="598.93 228.62 607.23 230.92 607.23 240.42 598.93 238.12 598.93 228.62"/><polygon points="615.63 233.12 624.03 235.42 624.03 244.92 615.63 242.62 615.63 233.12"/><polygon points="640.73 239.82 649.13 242.12 649.13 251.62 640.73 249.32 640.73 239.82"/><polygon points="506.73 194.42 515.13 196.72 515.13 206.22 506.73 203.92 506.73 194.42"/><polygon points="515.13 196.72 523.43 198.92 523.43 208.42 515.13 206.22 515.13 196.72"/><polygon points="523.43 198.92 531.83 201.22 531.83 210.72 523.43 208.42 523.43 198.92"/><polygon points="531.83 201.22 540.23 203.42 540.23 212.92 531.83 210.72 531.83 201.22"/><polygon points="540.23 203.42 548.63 205.72 548.63 215.22 540.23 212.92 540.23 203.42"/><polygon points="548.63 205.72 557.03 207.92 557.03 217.42 548.63 215.22 548.63 205.72"/><polygon points="582.13 214.62 590.53 216.92 590.53 226.42 582.13 224.12 582.13 214.62"/><polygon points="598.93 219.12 607.23 221.42 607.23 230.92 598.93 228.62 598.93 219.12"/><polygon points="607.23 221.42 615.63 223.62 615.63 233.12 607.23 230.92 607.23 221.42"/><polygon points="615.63 223.62 624.03 225.92 624.03 235.42 615.63 233.12 615.63 223.62"/><polygon points="632.43 228.12 640.73 230.42 640.73 239.82 632.43 237.62 632.43 228.12"/><polygon points="565.33 200.62 573.73 202.92 573.73 212.42 565.33 210.12 565.33 200.62"/><polygon points="582.13 205.12 590.53 207.42 590.53 216.92 582.13 214.62 582.13 205.12"/><polygon points="590.53 207.42 598.93 209.62 598.93 219.12 590.53 216.92 590.53 207.42"/><polygon points="624.03 216.42 632.43 218.62 632.43 228.12 624.03 225.92 624.03 216.42"/><polygon points="632.43 218.62 640.73 220.92 640.73 230.42 632.43 228.12 632.43 218.62"/><polygon points="640.73 220.92 649.13 223.12 649.13 232.62 640.73 230.42 640.73 220.92"/><polygon points="515.13 177.72 523.43 179.92 523.43 189.42 515.13 187.22 515.13 177.72"/><polygon points="531.83 182.22 540.23 184.42 540.23 193.92 531.83 191.72 531.83 182.22"/><polygon points="557.03 188.92 565.33 191.22 565.33 200.62 557.03 198.42 557.03 188.92"/><polygon points="565.33 191.22 573.73 193.42 573.73 202.92 565.33 200.62 565.33 191.22"/><polygon points="582.13 195.62 590.53 197.92 590.53 207.42 582.13 205.12 582.13 195.62"/><polygon points="607.23 202.42 615.63 204.62 615.63 214.12 607.23 211.92 607.23 202.42"/><polygon points="615.63 204.62 624.03 206.92 624.03 216.42 615.63 214.12 615.63 204.62"/><polygon points="624.03 206.92 632.43 209.12 632.43 218.62 624.03 216.42 624.03 206.92"/><polygon points="632.43 209.12 640.73 211.42 640.73 220.92 632.43 218.62 632.43 209.12"/><polygon points="506.73 165.92 515.13 168.22 515.13 177.72 506.73 175.42 506.73 165.92"/><polygon points="515.13 168.22 523.43 170.42 523.43 179.92 515.13 177.72 515.13 168.22"/><polygon points="523.43 170.42 531.83 172.72 531.83 182.22 523.43 179.92 523.43 170.42"/><polygon points="540.23 174.92 548.63 177.22 548.63 186.72 540.23 184.42 540.23 174.92"/><polygon points="557.03 179.42 565.33 181.72 565.33 191.22 557.03 188.92 557.03 179.42"/><polygon points="582.13 186.12 590.53 188.42 590.53 197.92 582.13 195.62 582.13 186.12"/><polygon points="590.53 188.42 598.93 190.62 598.93 200.12 590.53 197.92 590.53 188.42"/><polygon points="598.93 190.62 607.23 192.92 607.23 202.42 598.93 200.12 598.93 190.62"/><polygon points="615.63 195.12 624.03 197.42 624.03 206.92 615.63 204.62 615.63 195.12"/><polygon points="640.73 201.92 649.13 204.12 649.13 213.62 640.73 211.42 640.73 201.92"/><polygon points="506.73 156.42 515.13 158.72 515.13 168.22 506.73 165.92 506.73 156.42"/><polygon points="515.13 158.72 523.43 160.92 523.43 170.42 515.13 168.22 515.13 158.72"/><polygon points="540.23 165.42 548.63 167.72 548.63 177.22 540.23 174.92 540.23 165.42"/><polygon points="548.63 167.72 557.03 169.92 557.03 179.42 548.63 177.22 548.63 167.72"/><polygon points="557.03 169.92 565.33 172.22 565.33 181.72 557.03 179.42 557.03 169.92"/><polygon points="573.73 174.42 582.13 176.72 582.13 186.12 573.73 183.92 573.73 174.42"/><polygon points="590.53 178.92 598.93 181.12 598.93 190.62 590.53 188.42 590.53 178.92"/><polygon points="598.93 181.12 607.23 183.42 607.23 192.92 598.93 190.62 598.93 181.12"/><polygon points="615.63 185.62 624.03 187.92 624.03 197.42 615.63 195.12 615.63 185.62"/><polygon points="632.43 190.12 640.73 192.42 640.73 201.92 632.43 199.62 632.43 190.12"/><polygon points="640.73 192.42 649.13 194.62 649.13 204.12 640.73 201.92 640.73 192.42"/><polygon points="565.33 162.72 573.73 164.92 573.73 174.42 565.33 172.22 565.33 162.72"/><polygon points="506.73 137.52 515.13 139.72 515.13 149.22 506.73 147.02 506.73 137.52"/><polygon points="515.13 139.72 523.43 141.92 523.43 151.42 515.13 149.22 515.13 139.72"/><polygon points="523.43 141.92 531.83 144.22 531.83 153.72 523.43 151.42 523.43 141.92"/><polygon points="531.83 144.22 540.23 146.42 540.23 155.92 531.83 153.72 531.83 144.22"/><polygon points="540.23 146.42 548.63 148.72 548.63 158.22 540.23 155.92 540.23 146.42"/><polygon points="548.63 148.72 557.03 150.92 557.03 160.42 548.63 158.22 548.63 148.72"/><polygon points="573.73 155.42 582.13 157.72 582.13 167.22 573.73 164.92 573.73 155.42"/><polygon points="582.13 157.72 590.53 159.92 590.53 169.42 582.13 167.22 582.13 157.72"/><polygon points="598.93 162.22 607.23 164.42 607.23 173.92 598.93 171.62 598.93 162.22"/><polygon points="607.23 164.42 615.63 166.62 615.63 176.12 607.23 173.92 607.23 164.42"/><polygon points="615.63 166.62 624.03 168.92 624.03 178.42 615.63 176.12 615.63 166.62"/><polygon points="624.03 168.92 632.43 171.12 632.43 180.62 624.03 178.42 624.03 168.92"/><polygon points="632.43 171.12 640.73 173.42 640.73 182.92 632.43 180.62 632.43 171.12"/><polygon points="640.73 173.42 649.13 175.62 649.13 185.12 640.73 182.92 640.73 173.42"/><polygon points="506.73 128.02 515.13 130.22 515.13 139.72 506.73 137.52 506.73 128.02"/><polygon points="548.63 139.22 557.03 141.42 557.03 150.92 548.63 148.72 548.63 139.22"/><polygon points="573.73 145.92 582.13 148.22 582.13 157.72 573.73 155.42 573.73 145.92"/><polygon points="598.93 152.72 607.23 154.92 607.23 164.42 598.93 162.22 598.93 152.72"/><polygon points="640.73 163.92 649.13 166.12 649.13 175.62 640.73 173.42 640.73 163.92"/><polygon points="506.73 118.52 515.13 120.72 515.13 130.22 506.73 128.02 506.73 118.52"/><polygon points="523.43 123.02 531.83 125.22 531.83 134.72 523.43 132.52 523.43 123.02"/><polygon points="531.83 125.22 540.23 127.42 540.23 136.92 531.83 134.72 531.83 125.22"/><polygon points="548.63 129.72 557.03 131.92 557.03 141.42 548.63 139.22 548.63 129.72"/><polygon points="565.33 134.22 573.73 136.42 573.73 145.92 565.33 143.72 565.33 134.22"/><polygon points="573.73 136.42 582.13 138.72 582.13 148.22 573.73 145.92 573.73 136.42"/><polygon points="582.13 138.72 590.53 140.92 590.53 150.42 582.13 148.22 582.13 138.72"/><polygon points="598.93 143.22 607.23 145.42 607.23 154.92 598.93 152.72 598.93 143.22"/><polygon points="615.63 147.72 624.03 149.92 624.03 159.42 615.63 157.12 615.63 147.72"/><polygon points="624.03 149.92 632.43 152.12 632.43 161.62 624.03 159.42 624.03 149.92"/><polygon points="640.73 154.42 649.13 156.62 649.13 166.12 640.73 163.92 640.73 154.42"/><polygon points="506.73 109.02 515.13 111.22 515.13 120.72 506.73 118.52 506.73 109.02"/><polygon points="523.43 113.52 531.83 115.72 531.83 125.22 523.43 123.02 523.43 113.52"/><polygon points="531.83 115.72 540.23 118.02 540.23 127.42 531.83 125.22 531.83 115.72"/><polygon points="548.63 120.22 557.03 122.42 557.03 131.92 548.63 129.72 548.63 120.22"/><polygon points="565.33 124.72 573.73 126.92 573.73 136.42 565.33 134.22 565.33 124.72"/><polygon points="573.73 126.92 582.13 129.22 582.13 138.72 573.73 136.42 573.73 126.92"/><polygon points="598.93 133.72 607.23 135.92 607.23 145.42 598.93 143.22 598.93 133.72"/><polygon points="615.63 138.22 624.03 140.42 624.03 149.92 615.63 147.72 615.63 138.22"/><polygon points="624.03 140.42 632.43 142.62 632.43 152.12 624.03 149.92 624.03 140.42"/><polygon points="640.73 144.92 649.13 147.12 649.13 156.62 640.73 154.42 640.73 144.92"/><polygon points="506.73 99.52 515.13 101.72 515.13 111.22 506.73 109.02 506.73 99.52"/><polygon points="548.63 110.72 557.03 112.92 557.03 122.42 548.63 120.22 548.63 110.72"/><polygon points="573.73 117.42 582.13 119.72 582.13 129.22 573.73 126.92 573.73 117.42"/><polygon points="582.13 119.72 590.53 121.92 590.53 131.42 582.13 129.22 582.13 119.72"/><polygon points="598.93 124.22 607.23 126.42 607.23 135.92 598.93 133.72 598.93 124.22"/><polygon points="640.73 135.42 649.13 137.62 649.13 147.12 640.73 144.92 640.73 135.42"/><polygon points="506.73 90.02 515.13 92.22 515.13 101.72 506.73 99.52 506.73 90.02"/><polygon points="515.13 92.22 523.43 94.52 523.43 104.02 515.13 101.72 515.13 92.22"/><polygon points="523.43 94.52 531.83 96.72 531.83 106.22 523.43 104.02 523.43 94.52"/><polygon points="531.83 96.72 540.23 99.02 540.23 108.52 531.83 106.22 531.83 96.72"/><polygon points="540.23 99.02 548.63 101.22 548.63 110.72 540.23 108.52 540.23 99.02"/><polygon points="548.63 101.22 557.03 103.42 557.03 112.92 548.63 110.72 548.63 101.22"/><polygon points="565.33 105.72 573.73 107.92 573.73 117.42 565.33 115.22 565.33 105.72"/><polygon points="573.73 107.92 582.13 110.22 582.13 119.72 573.73 117.42 573.73 107.92"/><polygon points="582.13 110.22 590.53 112.42 590.53 121.92 582.13 119.72 582.13 110.22"/><polygon points="598.93 114.72 607.23 116.92 607.23 126.42 598.93 124.22 598.93 114.72"/><polygon points="607.23 116.92 615.63 119.22 615.63 128.72 607.23 126.42 607.23 116.92"/><polygon points="615.63 119.22 624.03 121.42 624.03 130.92 615.63 128.72 615.63 119.22"/><polygon points="624.03 121.42 632.43 123.72 632.43 133.12 624.03 130.92 624.03 121.42"/><polygon points="632.43 123.72 640.73 125.92 640.73 135.42 632.43 133.12 632.43 123.72"/><polygon points="640.73 125.92 649.13 128.12 649.13 137.62 640.73 135.42 640.73 125.92"/><polyline class="cls-10" points="69.53 492.02 69.53 429.32 120.93 443.12"/><polyline class="cls-10" points="120.93 696.02 69.53 682.22 69.53 619.52"/><polyline class="cls-10" points="217.53 469.92 268.93 483.72 268.93 546.42"/><polyline class="cls-10" points="268.93 674.12 268.93 736.82 217.53 723.02"/><ellipse class="cls-11" cx="172.47" cy="933.08" rx="25.8" ry="34.4" transform="translate(-408.61 166.12) rotate(-26.91)"/><path class="cls-10" d="M583.4,639.2c22.5,6,40.7,29.1,40.7,51.6l91.3,24.5V87.9l-264-70.7V644.5L542.7,669C542.7,646.5,560.9,633.1,583.4,639.2Z" transform="translate(-4.97 -12.98)"/><line class="cls-10" x1="710.03" y1="543.72" x2="704.23" y2="542.22"/><line class="cls-12" x1="692.23" y1="538.92" x2="457.93" y2="476.22"/><line class="cls-10" x1="451.93" y1="474.52" x2="446.13" y2="473.02"/><polyline class="cls-10" points="445.43 3.72 457.83 0.52 719.23 70.62 719.23 699.92 710.93 702.82"/><path class="cls-10" d="M565.6,638.5c-9.1,5-13.8,15.2-13.8,27.9l-8.1,2.9" transform="translate(-4.97 -12.98)"/><polygon class="cls-10" points="338.63 1061.82 0.63 971.22 0.63 118.82 338.63 209.32 338.63 1061.82"/><polygon class="cls-10" points="251.73 207.52 251.73 243.92 87.03 199.82 87.03 163.42 13.63 143.82 13.63 956.12 325.13 1039.52 325.13 227.22 251.73 207.52"/><path class="cls-10" d="M40.5,149.1" transform="translate(-4.97 -12.98)"/><polyline class="cls-10" points="339.23 1062.12 373.53 1052.12 373.53 199.72 353.83 194.42 35.53 109.12 0.13 118.42"/><line class="cls-10" x1="373.53" y1="200.12" x2="338.13" y2="209.32"/><line class="cls-10" x1="719.23" y1="540.72" x2="710.43" y2="543.72"/><line class="cls-10" x1="719.23" y1="71.82" x2="710.33" y2="74.82"/></g></svg>