<svg version="1.1" xmlns="http://www.w3.org/2000/svg" xmlns:xlink="http://www.w3.org/1999/xlink" x="0px" y="0px" viewBox="0 0 454 718" style="enable-background:new 0 0 454 718;" xml:space="preserve">
<style type="text/css">
	.st0{display:none;}
	.st1{display:inline;}
	.st2{opacity:0.5;}
	.st3{fill:#FFFFFF;}
	.st4{opacity:0.4;}
	.st5{font-family:'helvetica-roman';}
	.st6{font-size:15.4577px;}
	.st7{opacity:0.2;fill:#006AFF;enable-background:new    ;}
	.st8{fill-rule:evenodd;clip-rule:evenodd;fill:#006AFF;}
	.st9{opacity:0.2;}
	.st10{opacity:0.2;enable-background:new    ;}
	.st11{fill-rule:evenodd;clip-rule:evenodd;}
	.st12{opacity:0.4;enable-background:new    ;}
	.st13{font-family:'helvetica-roman';}
	.st14{font-size:11.0124px;}
	.st15{fill-opacity:0.03;}
	.st16{opacity:0.5;enable-background:new    ;}
	.st17{font-size:10.9055px;}
	.st18{font-size:12.9874px;}
	.st19{font-size:22.9803px;}
	.st20{font-size:18.1529px;}
	.st21{font-family:'helvetica-roman';}
	.st22{font-size:9.2339px;}
	.st23{fill:#006AFF;}
	.st24{font-size:13.8431px;}
	.st25{font-size:10.9457px;}
	.st26{fill-rule:evenodd;clip-rule:evenodd;fill:#FFFFFF;stroke:#FFFFFF;stroke-width:0.5;}
	.st27{fill-rule:evenodd;clip-rule:evenodd;fill:#FFFFFF;}
	.st28{font-size:18.1175px;}
	.st29{font-family:'helvetica-roman';}
</style>
<g id="Top">
	<g>
		<g>
			<path class="st3" d="M343,405.51H33.49c-6.6,0-12-5.4-12-12v-360c0-6.6,5.4-12,12-12H343c6.6,0,12,5.4,12,12v360
				C355,400.11,349.6,405.51,343,405.51z"></path>
		</g>
	</g>
	<text transform="matrix(1 0 0 1 286.7565 355.2127)" class="st4 st5 st6">€0,00</text>
	<circle class="st7" cx="256.21" cy="350.21" r="12"></circle>
	<path class="st8" d="M257.21,349.21v-6h-2v6h-6v2h6v6h2v-6h6v-2H257.21z"></path>
	<text transform="matrix(1 0 0 1 223.9666 355.3375)" class="st5 st6">0</text>
	<g class="st9">
		<circle class="st10" cx="204.21" cy="350.21" r="12"></circle>
		<path class="st11" d="M197.21,349.21h14v2h-14V349.21z"></path>
	</g>
	<text transform="matrix(1 0 0 1 40.6077 363.3399)" class="st12 st13 st14">€20.00</text>
	<text transform="matrix(1 0 0 1 41.766 345.481)" class="st5 st6">VIP Ticket</text>
	<rect x="25.68" y="306.6" class="st15" width="325.32" height="1"></rect>
	<circle class="st7" cx="256.21" cy="263.99" r="12"></circle>
	<path class="st8" d="M257.21,262.99v-6h-2v6h-6v2h6v6h2v-6h6v-2H257.21z"></path>
	<g class="st9">
		<circle class="st10" cx="204.21" cy="263.99" r="12"></circle>
		<path class="st11" d="M197.21,262.99h14v2h-14V262.99z"></path>
	</g>
	<text transform="matrix(1 0 0 1 40.762 278.8482)" class="st12 st13 st14">€16.00</text>
	<text transform="matrix(1 0 0 1 40.7617 260.8519)" class="st5 st6">Regular Ticket</text>
	<rect x="25.68" y="220.38" class="st15" width="325.32" height="1"></rect>
	<text transform="matrix(1 0 0 1 286.7567 183.1383)" class="st4 st5 st6">€0,00</text>
	<text transform="matrix(1 0 0 1 286.7567 270.1382)" class="st4 st5 st6">€0,00</text>
	<circle class="st7" cx="256.21" cy="177.77" r="12"></circle>
	<path class="st8" d="M257.21,176.77v-6h-2v6h-6v2h6v6h2v-6h6v-2H257.21z"></path>
	<text transform="matrix(1 0 0 1 223.9669 183.1384)" class="st5 st6">0</text>
	<text transform="matrix(1 0 0 1 223.9669 270.1384)" class="st5 st6">0</text>
	<g class="st9">
		<circle class="st10" cx="204.21" cy="177.77" r="12"></circle>
		<path class="st11" d="M197.21,176.77h14v2h-14V176.77z"></path>
	</g>
	<text transform="matrix(1 0 0 1 40.9047 193.7855)" class="st12 st13 st14">€10.00</text>
	<text transform="matrix(1 0 0 1 40.7613 173.982)" class="st5 st6">Early Bird Tickets</text>
	<text transform="matrix(1 0 0 1 105.75 111.9477)" class="st16 st13 st17">Edelstraat 38, 3910 AB, Eindhoven</text>
	<text transform="matrix(1 0 0 1 106.0839 98.5659)" class="st16 st13 st18">Tue Jun 9 09:00 - Tue Jun 9 22:00</text>
	<text transform="matrix(1 0 0 1 105.9477 71.749)" class="st5 st19">Outdoor Festival</text>
	<rect x="41.81" y="58.79" width="48" height="48"></rect>
	<text transform="matrix(1 0 0 1 60.2846 93.8246)" class="st3 st13 st20">9</text>
	<text transform="matrix(1 0 0 1 55.789 77.8154)" class="st3 st21 st22">JUN</text>
</g>
<g id="Code">
	<g>
		<g>
			<path class="st3" d="M22.81,425.79c0-6.63,3.72-12,8.3-12H346.7c4.59,0,8.3,5.37,8.3,12v48c0,6.63-3.72,12-8.3,12H31.12
				c-4.59,0-8.3-5.37-8.3-12V425.79z"></path>
		</g>
	</g>
	<text transform="matrix(1 0 0 1 82.7987 454.7194)" class="st23 st5 st24">I have a promo code</text>
	<g>
		<path class="st8" d="M48.24,444.79c-0.44,0.33-0.56,0.66-0.56,0.91s0.12,0.58,0.56,0.91c0.45,0.34,1.14,0.59,1.94,0.59
			s1.49-0.25,1.94-0.59c0.44-0.33,0.56-0.66,0.56-0.91s-0.12-0.58-0.56-0.91c-0.45-0.34-1.14-0.59-1.94-0.59
			S48.69,444.45,48.24,444.79z M50.19,442.2c-2.39,0-4.5,1.49-4.5,3.5s2.11,3.5,4.5,3.5s4.5-1.49,4.5-3.5S52.58,442.2,50.19,442.2z"></path>
		<path class="st8" d="M57.24,452.79c-0.44,0.33-0.56,0.66-0.56,0.91s0.12,0.58,0.56,0.91c0.45,0.34,1.14,0.59,1.94,0.59
			s1.49-0.25,1.94-0.59c0.44-0.33,0.56-0.66,0.56-0.91s-0.12-0.58-0.56-0.91c-0.45-0.34-1.14-0.59-1.94-0.59
			S57.69,452.45,57.24,452.79z M59.19,450.2c-2.39,0-4.5,1.49-4.5,3.5s2.11,3.5,4.5,3.5s4.5-1.49,4.5-3.5S61.58,450.2,59.19,450.2z"></path>
		<path class="st8" d="M62.69,445.2l-15,11l-1.18-1.61l15-11L62.69,445.2z"></path>
	</g>
</g>
<g id="Terms">
	<g>
		<g>
			<path class="st3" d="M21.81,508.79c0-6.63,3.73-12,8.33-12h316.53c4.6,0,8.33,5.37,8.33,12v20c0,6.63-3.73,12-8.33,12H30.14
				c-4.6,0-8.33-5.37-8.33-12V508.79z"></path>
		</g>
	</g>
	<text transform="matrix(1 0 0 1 82.657 524.0636)" class="st13 st25">Accept terms of service</text>
	<g>
		<path class="st23" d="M41.66,515.07c0-3.31,2.69-6,6-6h8c3.31,0,6,2.69,6,6v8c0,3.31-2.69,6-6,6h-8c-3.31,0-6-2.69-6-6V515.07z"></path>
		<path class="st26" d="M56.22,515.42l-5,8l-1.14-0.01l-3-5l1.14-0.68l2.44,4.06l4.42-7.07L56.22,515.42z"></path>
	</g>
</g>
<g id="Total">
	<g>
		<g>
			<path class="st3" d="M21.81,562.79c0-6.63,3.73-12,8.33-12h316.53c4.6,0,8.33,5.37,8.33,12v48c0,6.63-3.73,12-8.33,12H30.14
				c-4.6,0-8.33-5.37-8.33-12V562.79z"></path>
		</g>
	</g>
	<path class="st23" d="M180.81,586.79c0-12.58,10.74-22.79,24-22.79h104c13.26,0,24,10.21,24,22.79c0,12.58-10.74,22.79-24,22.79
		h-104C191.56,609.59,180.81,599.38,180.81,586.79z"></path>
	<path class="st3" d="M213.93,588.93c-0.37,1.6-1.46,2.4-3.04,2.4c-1.86,0-3.28-1.56-3.28-4.38c0-2.8,1.46-4.3,3.3-4.3
		c1.52,0,2.62,0.81,2.99,2.4h1.95c-0.46-2.61-2.3-4.07-4.88-4.07c-3.38,0-5.46,2.32-5.46,5.97s1.97,6.05,5.36,6.05
		c2.69,0,4.51-1.46,5.01-4.07H213.93z M218.96,588.5c0-1.98,1.06-2.96,2.27-2.96s2.27,0.98,2.27,2.96c0,1.99-1.06,2.95-2.27,2.95
		S218.96,590.49,218.96,588.5z M221.23,583.99c-2.1,0-4.24,1.41-4.24,4.51c0,3.12,2.14,4.5,4.24,4.5s4.24-1.38,4.24-4.5
		C225.47,585.4,223.33,583.99,221.23,583.99z M228.78,584.18h-1.9v8.61h1.9v-4.58c0-1.55,0.53-2.67,2-2.67s1.63,1.14,1.63,2.31v4.94
		h1.9v-5.41c0-2.05-0.85-3.39-2.93-3.39c-1.22,0-2.11,0.5-2.61,1.39V584.18z M236.41,584.18h-1.28v1.38h1.28v4.97
		c0,1.76,0.37,2.26,2.21,2.26h1.41v-1.46h-0.69c-0.82,0-1.02-0.2-1.02-1.08v-4.69h1.73v-1.38h-1.73v-2.27h-1.9V584.18z
		 M241.42,581.19v1.92h1.9v-1.92H241.42z M241.42,584.18v8.61h1.9v-8.61H241.42z M247.21,584.18h-1.9v8.61h1.9v-4.58
		c0-1.55,0.53-2.67,2-2.67c1.47,0,1.63,1.14,1.63,2.31v4.94h1.9v-5.41c0-2.05-0.85-3.39-2.93-3.39c-1.22,0-2.11,0.5-2.61,1.39
		V584.18z M259.88,592.79h1.9v-8.61h-1.9v4.59c0,1.56-0.51,2.68-1.94,2.68c-1.42,0-1.58-1.14-1.58-2.31v-4.96h-1.9v5.43
		c0,2.04,0.83,3.39,2.88,3.39c1.17,0,2.05-0.5,2.54-1.39V592.79z M271.54,589.03c0.18-2.88-1.49-5.04-4.13-5.04
		c-2.45,0-4.22,1.84-4.22,4.43c0,2.48,1.58,4.58,4.35,4.58c2.21,0,3.52-1.41,3.9-2.79h-1.87c-0.34,0.82-1.1,1.2-2.11,1.2
		c-1.09,0-2.21-0.78-2.34-2.38H271.54z M267.41,585.48c1.12,0,2.14,0.81,2.19,2.16h-4.48C265.3,586.02,266.52,585.48,267.41,585.48z
		"></path>
	<path class="st27" d="M305.35,585.95l-7-4.5l-1.08,1.68l4.14,2.66h-12.59v2h12.59l-4.14,2.66l1.08,1.68l7-4.5V585.95z"></path>
	<text transform="matrix(1 0 0 1 41.3656 602.9678)" class="st13 st28">€0,00</text>
	<text transform="matrix(1 0 0 1 41.1304 579.8033)" class="st29 st25">Total</text>
</g>
</svg>